<svg xmlns="http://www.w3.org/2000/svg" width="25" height="25" viewBox="0 0 25 25">
  <path fill="#FF2D5E" d="M150.5,48 C143.594758,48 138,53.5947581 138,60.5 C138,67.4052419 143.594758,73 150.5,73 C157.405242,73 163,67.4052419 163,60.5 C163,53.5947581 157.405242,48 150.5,48 Z M150.5,70.5806452 C144.930444,70.5806452 140.419355,66.0695565 140.419355,60.5 C140.419355,54.9304435 144.930444,50.4193548 150.5,50.4193548 C156.069556,50.4193548 160.580645,54.9304435 160.580645,60.5 C160.580645,66.0695565 156.069556,70.5806452 150.5,70.5806452 Z M148.887097,54.6532258 L148.887097,60.5 L145.510081,60.5 C144.970766,60.5 144.703629,61.1502016 145.081653,61.5332661 L150.071573,66.5231855 C150.308468,66.7600806 150.691532,66.7600806 150.928427,66.5231855 L155.918347,61.5332661 C156.301411,61.1502016 156.029234,60.5 155.489919,60.5 L152.112903,60.5 L152.112903,54.6532258 C152.112903,54.3205645 151.840726,54.0483871 151.508065,54.0483871 L149.491935,54.0483871 C149.159274,54.0483871 148.887097,54.3205645 148.887097,54.6532258 Z" transform="translate(-138 -48)"/>
</svg>
