<svg xmlns="http://www.w3.org/2000/svg" width="32" height="33" viewBox="0 0 32 33">
  <g fill="#1D1D1B" opacity=".9">
    <path d="M2.4250084 9.82882358C2.43521516 9.82882358 2.55259293 9.81307295 2.56790307 9.80257253 2.47093883 9.8865759 2.32804415 9.82357337 2.51686926 9.82357337 2.56790307 9.82357337 2.6138335 9.82882358 2.66486731 9.82882358 2.81796875 9.82357337 2.43521516 9.77107127 2.57810983 9.81832316 2.59852336 9.82357337 2.74141803 9.87082526 2.74652141 9.86557505 2.74652141 9.86557505 2.47604221 9.75007043 2.66486731 9.839324 2.72610789 9.87082526 2.82817551 9.98107968 2.59852336 9.78157169 2.75672817 9.91807716 2.48114559 9.57681349 2.57300645 9.74482022 2.56790307 9.7343198 2.47093883 9.45080844 2.51176588 9.62406538 2.51176588 9.61356496 2.49135235 9.30380255 2.49135235 9.4823097 2.48624897 9.66081685 2.51176588 9.35105445 2.51686926 9.34055403 2.51176588 9.34580424 2.48624897 9.43505781 2.48624897 9.45080844 2.48624897 9.31955318 2.59852336 9.20404856 2.5321794 9.32480339 2.44542192 9.48755991 2.65976393 9.18829793 2.69038422 9.15679667 2.71590112 9.13579582 2.74141803 9.12004519 2.76693493 9.09904435 2.6954876 9.14104603 2.71079774 9.13579582 2.81286537 9.08854393 2.86389918 9.0727933 3.23134262 9.03079162 3.0476209 9.02554141 3.22113586 9.03079162 3.29768658 9.08854393 3.44568463 9.15679667 3.6447165 9.25130045 3.36403053 9.0727933 3.51202859 9.2250494 3.52733873 9.24605024 3.54264887 9.26705108 3.5630624 9.28805192 3.51713197 9.20404856 3.51713197 9.20929877 3.55795902 9.30380255 3.58347592 9.51381097 3.58347592 9.25655066 3.54775225 9.24080003 3.57837254 9.25655066 3.54775225 9.54531223 3.5630624 9.34055403 3.56816578 9.30380255 3.57326916 9.2250494 3.56816578 9.19354814 3.57837254 9.23554982 3.50692521 9.47180928 3.5630624 9.28805192 3.57326916 9.25130045 3.58347592 9.21979919 3.59368269 9.18304772 3.62430297 9.09904435 3.60899283 9.13579582 3.54775225 9.29330213 3.55285564 9.29330213 3.61919959 9.15154646 3.61919959 9.16729709 3.61919959 9.19879835 3.43037449 9.37205529 3.57326916 9.23554982 3.56816578 9.24080003 3.67533678 9.14104603 3.67533678 9.13579582 3.68044017 9.21979919 3.47630492 9.26705108 3.61919959 9.19879835 3.35382377 9.33005361 3.49671844 9.25655066 3.57326916 9.2250494 3.71106045 9.16729709 3.3181001 9.25655066 3.46099477 9.24080003 3.50692521 9.23554982 3.66513002 9.24080003 3.47120154 9.23029961 3.20072233 9.21979919 3.6702334 9.30905276 3.43037449 9.2250494 3.26706629 9.16729709 3.39465082 9.21454898 3.44058125 9.24080003 3.5630624 9.32480339 3.25175615 9.08329372 3.35892715 9.17779751 3.42527111 9.23554982 3.49671844 9.3773055 3.3181001 9.11479498 3.36403053 9.17779751 3.38444406 9.30905276 3.28237643 9.00979078 3.31299672 9.09379414 3.2925832 9.19879835 3.27216967 8.89428615 3.28237643 9.04129204 3.21603248 8.89428615 3.29768658 8.77878153 3.29768658 8.77878153 3.26196291 8.88903594 3.26706629 8.90478657 3.34361701 8.73677984 3.35892715 8.68952795 3.3181001 8.77353132 3.30278996 8.80503258 3.28747981 8.83128363 3.26706629 8.85753468 3.26196291 8.83128363 3.46099477 8.64752627 3.32320348 8.77878153 3.2925832 8.81028279 3.26196291 8.84703426 3.22623924 8.87853552 3.22113586 8.88378573 3.12417162 8.95728868 3.11906824 8.97303931 3.14458514 8.87328531 3.30278996 8.84178405 3.18030881 8.9205372 2.98638033 9.04129204 2.79245184 9.15154646 2.58831659 9.25130045 2.46073206 9.31430297 2.79755522 9.17779751 2.64955717 9.2250494 2.62914364 9.23029961 2.46583545 9.29330213 2.46073206 9.28805192 2.4505253 9.26180087 2.76183155 9.29855234 2.53728278 9.2775515 2.64445379 9.28805192 2.73631465 9.30380255 2.83327889 9.35630466 2.92513975 9.40880676 3.01700061 9.49806033 3.06803442 9.58731391 3.19561895 9.81307295 3.13437838 9.77632148 3.11396485 9.68181769 3.07313781 9.48755991 3.12417162 9.76582106 3.11906824 9.7868219 3.129275 9.72906959 3.10886147 9.62931559 3.10886147 9.57156328 3.10886147 9.0202912 3.11396485 8.46376891 3.1547919 7.91774704 3.17010205 7.72873947 3.08844795 8.17500734 3.15989529 7.92299725 3.17520543 7.87049515 3.18030881 7.81799304 3.19561895 7.76549094 3.2109291 7.71298884 3.22623924 7.66048674 3.24154938 7.61323484 3.26706629 7.51348085 3.32830686 7.50823064 3.2109291 7.67098716 3.26706629 7.592234 3.30789334 7.47672938 3.35892715 7.39272601 3.47120154 7.18796781 3.32320348 7.45572853 3.3181001 7.4399779 3.3181001 7.4399779 3.46609816 7.26672096 3.4814083 7.27722138 3.4814083 7.27722138 3.28237643 7.42422727 3.42527111 7.3349737 3.5885793 7.22996949 3.35892715 7.37697538 3.33851363 7.36647496 3.35382377 7.37697538 3.47630492 7.32447328 3.50182182 7.31922307 3.6447165 7.27197117 3.25175615 7.34022391 3.3997542 7.3349737 3.47120154 7.32972349 3.57326916 7.37172517 3.41506434 7.31922307 3.20072233 7.24572012 3.43547787 7.35597454 3.45589139 7.3349737 3.44058125 7.34547412 3.20072233 7.18796781 3.36403053 7.29297202 3.53244211 7.40322643 3.21603248 7.15121634 3.3181001 7.25097033 3.42527111 7.36122475 3.14968852 7.01996108 3.30278996 7.24572012 3.30789334 7.25622054 3.31299672 7.27197117 3.32320348 7.28247159 3.35892715 7.36122475 3.34872039 7.32972349 3.28747981 7.19846823 3.34872039 7.25097033 3.36403053 7.4399779 3.38954744 7.51873106 3.46099477 7.75499052 3.52223535 7.99124998 3.57837254 8.23275966 3.60388945 8.35351449 3.62940635 8.47426933 3.65492326 8.60027438 3.66513002 8.65277648 3.67533678 8.71052879 3.68044017 8.76303089 3.68554355 8.81028279 3.70085369 8.98878994 3.69064693 8.81028279 3.67533678 8.60552459 3.69575031 8.87328531 3.69575031 8.89953636 3.70085369 8.95203846 3.70595707 9.00979078 3.70595707 9.06229288 3.71106045 9.19354814 3.71616383 9.33005361 3.71106045 9.46130886 3.71106045 9.51381097 3.70595707 9.56631307 3.70085369 9.61881517 3.69064693 9.80257253 3.67533678 9.55056244 3.71616383 9.54006202 3.69575031 9.54531223 3.66513002 9.80257253 3.65492326 9.839324 3.63961312 9.8865759 3.62940635 9.939078 3.61409621 9.98632989 3.60388945 10.0125809 3.59878607 10.0335818 3.5885793 10.0598328 3.55285564 10.1543366 3.55285564 10.1543366 3.5885793 10.0598328 3.59878607 10.038832 3.60899283 10.0125809 3.61409621 9.9915801 3.59878607 10.0283316 3.58347592 10.0598328 3.5630624 10.0965843 3.53244211 10.1543366 3.49671844 10.2068387 3.46609816 10.264591 3.34872039 10.4850999 3.5885793 10.1333358 3.4814083 10.2488404 3.44568463 10.2855919 3.41506434 10.3275936 3.37934068 10.364345 3.34361701 10.4010965 3.30278996 10.4325978 3.26706629 10.4693492 3.15989529 10.5796037 3.50182182 10.3275936 3.28747981 10.4483484 3.22623924 10.4850999 3.06803442 10.5428522 3.02210399 10.6006045 3.03741414 10.5796037 3.27727305 10.5113509 3.08334457 10.5691032 3.01189723 10.5901041 2.94044989 10.6163551 2.86389918 10.6321058 2.81796875 10.6426062 2.75162479 10.6426062 2.71590112 10.663607 2.74652141 10.6478564 2.99148371 10.6478564 2.79245184 10.6478564 2.76693493 10.6478564 2.49135235 10.6426062 2.49135235 10.6426062 2.50666249 10.5901041 2.74652141 10.7003585 2.56790307 10.6478564 2.36376782 10.5848539 2.63424702 10.6898581 2.68528084 10.7266095 2.71590112 10.7476104 2.89962285 10.9681192 2.82817551 10.8526146 2.79245184 10.7738614 2.8026586 10.8106129 2.87410594 10.962869 2.8587958 10.9156171 2.83838227 10.8736154 2.82307213 10.8263635 2.63424702 10.2960923 2.49135235 9.75007043 2.38928473 9.19354814 2.37907797 9.13054561 2.3688712 9.06754309 2.35866444 9.00454057 2.35356106 8.95728868 2.28211372 8.64752627 2.34845768 8.93103762 2.31273401 8.77878153 2.31273401 8.60552459 2.30252725 8.44801828 2.28211372 8.16975713 2.27701034 7.89149599 2.29232049 7.61323484 2.29742387 7.45572853 2.20556301 7.88624578 2.29742387 7.6447361 2.30252725 7.61848505 2.31273401 7.592234 2.31783739 7.56598295 2.35356106 7.46622895 2.34845768 7.46622895 2.31783739 7.56073274 2.30763063 7.58173358 2.30252725 7.60798463 2.29232049 7.62898547 2.3433543 7.54498211 2.3433543 7.5397319 2.2872171 7.61848505 2.22597653 7.69723821 2.23107991 7.691988 2.30252725 7.61323484 2.19025286 7.69723821 2.16983934 7.71298884 2.23618329 7.67098716 2.27190696 7.65523652 2.43521516 7.57648337 2.2872171 7.63423568 2.12901229 7.69723821 2.34845768 7.62373526 2.38418135 7.61323484 2.40969825 7.60798463 2.65976393 7.56598295 2.46073206 7.592234 2.27190696 7.61848505 2.50155911 7.592234 2.54238616 7.592234 2.59341997 7.592234 2.64445379 7.59748421 2.6954876 7.59748421 2.94044989 7.592234 2.48114559 7.5397319 2.70059098 7.59748421 2.75162479 7.61323484 2.8026586 7.62373526 2.85369241 7.63423568 2.88941608 7.6447361 2.93024313 7.65523652 2.9659668 7.67098716 3.0476209 7.70248842 3.01700061 7.68673779 2.87410594 7.62898547 2.91493299 7.67098716 3.1547919 7.82324325 3.2109291 7.82849346 3.17520543 7.82324325 3.02210399 7.64998631 3.15989529 7.7969922 3.17520543 7.81274283 3.30278996 7.96499893 3.32320348 7.97024914 3.29768658 7.96499893 3.17520543 7.73923989 3.28237643 7.92299725 3.32320348 7.99124998 3.35892715 8.05950272 3.3997542 8.12775545 3.48651168 8.28526176 3.39465082 8.07525335 3.37934068 8.06475293 3.40996096 8.07525335 3.44058125 8.26951113 3.45078801 8.29576218 3.46099477 8.33251365 3.46609816 8.42701744 3.4814083 8.45326849 3.43037449 8.37976554 3.46099477 8.2065086 3.47120154 8.42176723 3.47630492 8.49001996 3.47120154 8.55302248 3.47120154 8.62127522 3.47630492 8.85753468 3.51713197 8.37451533 3.47120154 8.62652543 3.35382377 9.2250494 3.63961312 9.92332737 4.267329 10.0703333 4.83380431 10.2015885 5.54317429 9.89707632 5.67075882 9.25130045 5.84427378 8.3587647 5.72179264 7.39272601 5.18593761 6.64194594 4.60415216 5.82291314 3.79271455 5.36614484 2.81796875 5.26114064 1.87894661 5.16138664.797029801 5.57615325.322415352 6.45293837-.12157881 7.27722138-.0144078058 8.29576218.102969961 9.18829793.215244347 10.0335818.393862688 10.8683652.70516894 11.661147.939924474 12.2649212 1.30226454 12.7216894 1.9350838 12.9054468 2.39438811 13.0367021 2.86900256 13.0157012 3.33341025 12.9369481 4.19588166 12.784692 4.93587193 12.2229195 5.42069315 11.4931402 5.86468731 10.8263635 6.02289212 9.95482863 5.99737522 9.15679667 5.97185831 8.38501575 5.80344673 7.61323484 5.58400134 6.87295519 5.44621005 6.40043627 5.26248833 5.93316755 4.91545841 5.58665367 4.54291158 5.21913895 4.05298699 5.03538159 3.54264887 5.00388033 2.61893688 4.94612802 1.75136208 5.53940178 1.31757468 6.35843458.8786839 7.18796781.858270375 8.10675461.853166994 9.02554141.848063613 9.44030802.822546707 9.84457421.909304187 10.2593408 1.03688872 10.8683652 1.46557274 11.3566348 2.03204805 11.5561428 2.81796875 11.8344039 3.76719765 11.3986365 4.40512029 10.9313677 5.18593761 10.364345 5.76772307 9.47705949 5.50234724 8.45326849 5.26248833 7.52398127 4.30815605 6.84145393 3.37423729 6.9254573 2.39438811 7.01996108 1.57274374 7.76549094 1.35840173 8.76303089 1.13385296 9.7868219 1.57784712 11.0573728 2.65466055 11.3356339 3.2109291 11.4826398 3.79271455 11.3251335 4.21119181 10.9156171 4.55822173 10.5743534 4.72152992 10.1018345 4.76235697 9.62406538 4.84911445 8.64227606 4.08360728 7.77599136 3.18030881 7.58173358 2.71590112 7.48197959 2.28211372 7.49773022 1.81770604 7.60273442 1.23592058 7.73398968.83785685 8.46901912 1.02157857 9.04654225 1.22061044 9.63981601 1.79729251 9.96532905 2.4250084 9.82882358zM18.3287986 4.31863011C18.2532047 4.10888567 18.1917847 3.89389761 18.1492631 3.67366594 18.1492631 3.66317872 18.12564 3.54257566 18.12564 3.54257566 18.1303646 3.54257566 18.1445385 3.77853817 18.1303646 3.58452455 18.1209154 3.44819066 18.1161908 3.31710038 18.1161908 3.18076649 18.1161908 3.09686872 18.0972923 2.93956038 18.1303646 2.86614983 18.1209154 2.88712427 18.0831184 3.13881761 18.12564 2.90809872 18.1350892 2.85041899 18.1445385 2.78749566 18.1587123 2.72981594 18.1776108 2.62494371 18.2059585 2.5253151 18.2343062 2.42568649 18.2484801 2.3837376 18.262654 2.34178871 18.2721032 2.29983982 18.3476971 2.03765926 18.2059585 2.41519927 18.2721032 2.2893526 18.324074 2.1949676 18.4138418 2.07960815 18.2106832 2.30508343 18.1728862 2.34703232 18.1350892 2.38898121 18.0972923 2.4309301 17.9555537 2.48860982 17.9224814 2.50958427 18.0027999 2.48860982 18.1067415 2.45190455 17.8988583 2.50958427 17.889409 2.50434066 17.9083075 2.51482788 18.0358722 2.48860982 18.0689446 2.48336621 18.3099002 2.45714816 18.5461311 2.43617371 18.7870867 2.41519927 18.9855207 2.39946843 19.193404 2.39422482 19.3965626 2.36276316 19.5619243 2.3365451 19.3634903 2.34703232 19.3162441 2.33130149 19.1792301 2.28410899 19.0138684 2.12680065 18.9335499 1.99571038 18.9193761 1.97473593 18.8437821 1.72828621 18.8910283 1.91705621 18.8768545 1.85937649 18.8768545 1.67060648 18.8721299 1.82791482 18.8674052 2.3365451 18.8863037 2.84517538 18.8910283 3.35380566 18.895753 3.56355011 18.895753 3.76805094 18.8910283 3.97779539 18.8863037 4.06693678 18.8863037 4.15607817 18.8768545 4.23997595 18.8721299 4.27668122 18.8674052 4.3133865 18.8674052 4.35533539 18.8674052 4.05644956 18.8815791 4.23473234 18.8626806 4.33960456 18.8485068 4.42350234 18.8154344 4.5021565 18.8012606 4.58605428 18.7776375 4.70141373 18.8437821 4.47593845 18.8485068 4.47069484 18.8248837 4.5021565 18.8107098 4.55983623 18.7918113 4.5965415 18.7823621 4.61751595 18.7256667 4.70141373 18.7256667 4.71190095 18.7256667 4.71714456 18.8815791 4.46020761 18.7681882 4.63324678 18.7492898 4.65946484 18.6547974 4.74336262 18.7776375 4.63324678 18.9335499 4.49166928 18.7303913 4.68043928 18.7067682 4.66470845 18.6925943 4.65422123 18.9713469 4.58081067 18.7540144 4.63324678 18.720942 4.643734 18.6831451 4.64897762 18.6453481 4.65946484 18.5083342 4.70665734 18.8532314 4.64897762 18.7067682 4.65422123 18.659522 4.65422123 18.6075512 4.65946484 18.5555804 4.66470845 18.4705372 4.66995206 18.3807694 4.66470845 18.2957263 4.66470845 18.2721032 4.66470845 18.1539877 4.64897762 18.1445385 4.65946484 18.2201324 4.58605428 18.5083342 4.82201678 18.5508557 4.86396567 18.6170004 4.92688901 18.6831451 5.04224845 18.7067682 5.13663345 18.720942 5.32015984 18.7303913 5.36210873 18.7256667 5.27296734 18.7256667 5.21004401 18.7256667 5.22577484 18.7114928 5.32540345 18.6736958 5.51941707 18.7020436 5.36210873 18.720942 5.32015984 18.7823621 5.14187706 18.7398405 5.35162151 18.6878697 5.38832679 18.6973189 5.38308318 18.7303913 5.31491623 18.7303913 5.30442901 18.7445651 5.27821095 18.758739 5.2519929 18.7776375 5.22577484 18.7445651 5.27296734 18.7162174 5.31491623 18.6831451 5.36210873 18.6925943 5.36210873 18.9666222 5.08944095 18.796536 5.22577484 18.659522 5.33589068 18.8768545 5.16809512 18.9241007 5.13663345 19.0091438 5.07895373 19.094187 5.03176123 19.1792301 4.98456873 19.2170271 4.96359428 19.2642733 4.94786345 19.2973456 4.9216454 19.2595486 4.94786345 19.094187 5.01078679 19.2264763 4.95835067 19.3256933 4.91640178 19.4249103 4.8744529 19.5241273 4.83774762 20.024937 4.64897762 20.3509357 4.15083456 20.2800664 3.55306289 20.2091971 2.9500476 19.7745322 2.57775121 19.2453748 2.53580232 19.4012872 2.54628955 19.5619243 2.58823844 19.6753152 2.7140851 19.7414598 2.78749566 19.7934306 2.90809872 19.7036629 2.75079038 19.6422428 2.63543094 19.5949966 2.51482788 19.5430258 2.39422482 19.3729395 2.03241565 19.1083608 1.70206815 18.7823621 1.50805454 18.2532047 1.18819426 17.591758 1.28782287 17.1523684 1.74401704 16.8547174 2.04814649 16.6751819 2.46763538 16.5428925 2.88712427 16.2594154 3.76280733 16.4484001 4.87969651 17.2232377 5.37259595 17.9555537 5.83927735 18.9335499 5.6767254 19.3776641 4.8272604 19.689489 4.23473234 19.4579827 3.60025539 18.9996946 3.22271538 18.5555804 2.86090621 17.9177568 2.68262344 17.3885994 2.90809872 16.7507758 3.18076649 16.3775308 3.75756372 16.1838214 4.46545123 16.0231844 5.05273567 16.3775308 5.7711104 16.9208621 5.90744429 17.492541 6.04902179 18.0453215 5.71867429 18.2201324 5.08944095 18.2295816 5.05273567 18.2390309 5.01078679 18.2532047 4.97408151 18.2815524 4.89018373 18.2673786 4.9216454 18.2106832 5.07895373 18.2201324 5.07895373 18.2815524 4.94261984 18.2862771 4.92688901 18.3382479 4.80104234 18.1209154 5.12090262 18.2484801 4.99505595 18.1067415 5.10517179 18.0689446 5.13663345 18.1350892 5.08944095 18.2059585 5.04224845 18.1587123 5.05797929 17.9933507 5.14712067 18.1587123 5.09468456 17.7523951 5.1576079 17.8799598 5.15236429 18.0547707 5.14712067 17.8374382 5.14712067 17.7807428 5.13138984 17.9555537 5.17333873 17.5870334 4.98456873 17.7523951 5.11565901 17.8090905 5.1576079 17.8705106 5.19955679 17.927206 5.24674929 17.7996413 4.71190095 17.6768012 4.17705261 17.5492364 3.64220428 17.6153811 3.53208844 17.6956996 3.44819066 17.7996413 3.38002372 17.9839014 3.30661316 18.0216984 3.28563872 17.9177568 3.322344 18.1067415 3.30136955 18.163437 3.29088233 18.0736692 3.29088233 17.988626 3.28563872 18.0405969 3.29612594 18.224857 3.31185677 18.1209154 3.2751515 18.1539877 3.29612594 18.3287986 3.3695365 18.2343062 3.30661316 18.262654 3.33807483 18.4091172 3.45343427 18.3949433 3.43770344 18.3854941 3.42721622 18.3713202 3.41148539 18.4469141 3.49538316 18.4988849 3.58976816 18.522508 3.70512761 18.4941603 3.57928094 18.4894357 3.60025539 18.5177834 3.77329455 18.5130588 3.71561483 18.5130588 3.66317872 18.5177834 3.605499 18.5130588 3.6526915 18.5083342 3.699884 18.5036096 3.7470765 18.5130588 3.68939678 18.5272326 3.63696066 18.5461311 3.57928094 18.5886527 3.45867789 18.5792035 3.46916511 18.5272326 3.61598622 18.5414065 3.57403733 18.560305 3.53733205 18.5792035 3.50062677 18.621725 3.41148539 18.7729129 3.22271538 18.5933773 3.44294705 18.3902187 3.67890955 18.0122491 3.71561483 17.7665689 3.55306289 17.6390042 3.43245983 17.6153811 3.416729 17.6956996 3.50062677 17.6012073 3.35380566 17.5870334 3.33807483 17.6484534 3.43770344 17.7240474 3.58452455 17.7807428 3.74183289 17.8563367 3.888654 18.1681616 4.47593845 18.621725 4.81152956 19.2359256 4.86396567 19.1414332 4.09839845 19.0469408 3.32758761 18.957173 2.56202038 17.8421628 2.98675288 16.5428925 3.80999983 16.6090372 5.33064707 16.6326603 5.89695707 16.8641666 6.43180541 17.3082809 6.73593485 17.6626273 6.98238458 18.1020169 7.00860263 18.5130588 6.99811541 19.3162441 6.97714097 20.0202124 6.66776791 20.4973989 5.93890596 20.85647 5.3935704 20.9604116 4.69617012 20.9887593 4.04071872 21.0171071 3.39051094 20.9840347 2.73505955 20.9745855 2.09009538 20.9698609 1.66536287 20.9509624 1.24587398 20.7714268.863090368 20.5257466.333485642 20.0485601.0345998068 19.5194027.00313813992 19.2453748-.0125926935 18.9618976.0345998068 18.6878697.0608178625 18.3051755.0975231406 17.9130321.123741196 17.530338.191908141 16.5948633.364947309 16.1979953 1.41891315 16.065706 2.35227593 15.9428659 3.21747177 15.9806628 4.10364206 16.2783138 4.9216454 16.3822555 5.21528762 16.5098202 5.45649373 16.7649496 5.62428929 16.9917314 5.7711104 17.3224547 5.83403374 17.5775842 5.74489235 18.087843 5.5823404 18.5461311 4.92688901 18.3287986 4.31863011zM11.8566883 27.258597C11.7409901 27.4116956 11.6202616 27.5647943 11.5045634 27.7178929 12.3446329 26.6155827 13.3154916 25.6204414 14.4020484 24.7681923 14.2511378 24.8855679 14.1002271 25.0080469 13.9493164 25.1254225 14.9302358 24.3599292 15.9966713 23.7220182 17.1385621 23.2321025 16.9574693 23.3086519 16.7814068 23.3852012 16.600314 23.4617505 17.6214762 23.0330743 18.6879117 22.7319803 19.7845293 22.5788816 19.5833151 22.6043981 19.3871312 22.6350178 19.1859169 22.6605343 20.1517453 22.532952 21.1276343 22.5380553 22.098493 22.6656375 21.8972788 22.6401211 21.7010949 22.6095014 21.4998807 22.5839849 22.5160126 22.7217737 23.5069927 22.992248 24.4526996 23.3903045 24.2716068 23.3137552 24.0955443 23.2372058 23.9144515 23.1606565 24.7595513 23.52299 25.5593779 23.9873892 26.2887795 24.5538542 26.1378689 24.4364786 25.9869582 24.3139997 25.8360475 24.196624 26.4849634 24.7069528 27.0634544 25.2887277 27.56649 25.9419486 27.4507918 25.78885 27.3300632 25.6357513 27.214365 25.4826527 27.4357007 25.7735401 27.6369149 26.0797374 27.8230381 26.391038 28.1147987 26.8860569 28.6178343 27.2841134 29.1661431 27.4372121 29.7043912 27.5852074 30.4187018 27.5188647 30.8965856 27.2075641 31.3744694 26.8911602 31.7970193 26.426761 31.9278086 25.8449861 32.0636282 25.2479014 32.018355 24.6201969 31.7014425 24.089455 29.4679645 20.3079184 25.2424655 18.1441241 20.9616326 18.0063353 16.6556479 17.8685466 12.4653614 19.9915145 9.51757282 23.0892105 8.6523516 23.9975958 7.87264642 25.0080469 7.19354837 26.0695308 6.48426818 27.1871509 5.89068618 28.3762171 5.30213454 29.5652833 5.03049532 30.1164384 4.90976677 30.7135231 5.07576852 31.3208144 5.22164884 31.8515564 5.62407732 32.4231247 6.10699149 32.6833924 6.63014851 32.9640733 7.258943 33.1018621 7.83743393 32.9130404 8.37568202 32.7395286 8.91896046 32.3976083 9.18556933 31.8719696 9.98036557 30.2746404 10.7801922 28.6824144 11.8566883 27.258597z"/>
  </g>
</svg>
